<?xml version="1.0" encoding="utf-8"?>
<!-- Generator: Adobe Illustrator 23.0.0, SVG Export Plug-In . SVG Version: 6.00 Build 0)  -->
<svg version="1.0" id="Layer_1" xmlns="http://www.w3.org/2000/svg" xmlns:xlink="http://www.w3.org/1999/xlink" x="0px" y="0px"
	 viewBox="0 0 100 70" style="enable-background:new 0 0 100 70;" xml:space="preserve">
<style type="text/css">
	.st0{display:none;fill:none;stroke:#F44647;stroke-width:4;}
	.st1{fill:#0179CB;}
</style>
<rect x="7.3" y="47.8" class="st0" width="80.7" height="20.2"/>
<rect x="47.7" y="21.1" class="st0" width="20.2" height="46.9"/>
<ellipse class="st0" cx="19.5" cy="20.6" rx="17.5" ry="17.6"/>
<image style="display:none;overflow:visible;" width="1200" height="1200" xlink:href="C:\Users\Cavin Surya\Downloads\1200px-Visual_Studio_Code_1.35_icon.svg.png"  transform="matrix(5.806738e-02 0 0 5.806738e-02 15.1596 0)">
</image>
<path class="st1" d="M43.1,40.3l-11.9,9.3L26,47V22.8l5.2-2.6L43,29.5l18.7-18.7L74,15.7V54l-12.2,5L43.1,40.3z M61.3,43.6V26.2
	l-11.2,8.7L61.3,43.6L61.3,43.6z M31.6,40.4l5.9-5.3l-5.9-5.9V40.4z"/>
</svg>
