<?xml version="1.0" encoding="utf-8"?>
<!-- Generator: Adobe Illustrator 23.0.0, SVG Export Plug-In . SVG Version: 6.00 Build 0)  -->
<svg version="1.0" id="Layer_1" xmlns="http://www.w3.org/2000/svg" xmlns:xlink="http://www.w3.org/1999/xlink" x="0px" y="0px"
	 viewBox="0 0 100 70" style="enable-background:new 0 0 100 70;" xml:space="preserve">
<style type="text/css">
	.st0{display:none;fill:none;stroke:#F44647;stroke-width:4;}
	.st1{display:none;fill:#0179CB;}
</style>
<rect x="7.3" y="47.8" class="st0" width="80.7" height="20.2"/>
<rect x="47.7" y="21.1" class="st0" width="20.2" height="46.9"/>
<ellipse class="st0" cx="19.5" cy="20.6" rx="17.5" ry="17.6"/>
<image style="display:none;overflow:visible;" width="1200" height="1200" xlink:href="C:\Users\Cavin Surya\Downloads\1200px-Visual_Studio_Code_1.35_icon.svg.png"  transform="matrix(5.806738e-02 0 0 5.806738e-02 15.1596 0)">
</image>
<path class="st1" d="M43.1,40.3l-11.9,9.3L26,47V22.8l5.2-2.6L43,29.5l18.7-18.7L74,15.7V54l-12.2,5L43.1,40.3z M61.3,43.6V26.2
	l-11.2,8.7L61.3,43.6L61.3,43.6z M31.6,40.4l5.9-5.3l-5.9-5.9V40.4z"/>
<g>
	<path d="M74.7,36.9c0,0.1,0,0.1,0,0.2c0,0.8-0.1,1.6-0.3,2.4c-0.3,1.7-0.7,3.4-1.4,5.1c-1,2.5-2.3,4.7-4,6.8
		c-1.6,1.9-3.4,3.5-5.4,4.8c-1.7,1.1-3.6,2-5.5,2.7C57.8,59,57.5,59,57.2,59c-0.6-0.1-1-0.5-1-1.1c0-0.1,0-0.2,0-0.3
		c0-2.2,0-4.4,0-6.7c0-0.9-0.1-1.7-0.4-2.5c-0.2-0.7-0.6-1.3-1.1-1.8c0,0-0.1-0.1-0.1-0.1c0-0.1,0.1-0.1,0.1-0.1
		c0.7-0.1,1.4-0.2,2-0.3c1.3-0.3,2.5-0.6,3.6-1.2c0.9-0.4,1.7-1,2.4-1.7c1-1,1.7-2.2,2.2-3.5c0.4-1,0.6-2.1,0.7-3.2
		c0.1-0.9,0.1-1.7,0.1-2.6c-0.1-2-0.7-3.7-1.8-5.3c-0.2-0.2-0.4-0.5-0.5-0.7c-0.1-0.1-0.1-0.2-0.1-0.3c0.4-1.1,0.5-2.2,0.4-3.3
		c-0.1-1-0.3-1.9-0.6-2.8c-0.1-0.2-0.2-0.3-0.4-0.3c-0.7,0-1.4,0.1-2.1,0.3c-1.1,0.4-2.2,0.9-3.2,1.5c-0.3,0.2-0.7,0.4-1,0.6
		c-0.1,0.1-0.2,0.1-0.4,0.1c-0.9-0.3-1.8-0.4-2.8-0.6c-0.6-0.1-1.2-0.1-1.8-0.2c-0.5,0-1,0-1.6,0c-1.9,0-3.8,0.3-5.7,0.8
		c-0.2,0.1-0.4,0-0.6-0.1c-1.1-0.7-2.3-1.4-3.5-1.9c-0.6-0.2-1.2-0.4-1.9-0.5c-0.3,0-0.6,0-0.9,0c-0.1,0-0.2,0.1-0.3,0.2
		c-0.3,0.7-0.4,1.4-0.6,2.1c-0.1,0.6-0.1,1.2-0.1,1.8c0,0.8,0.2,1.5,0.4,2.3c0.1,0.2,0,0.3-0.1,0.4c-1.2,1.4-2,3-2.2,4.7
		c-0.1,0.4-0.1,0.8-0.1,1.2c0,1.6,0.1,3.1,0.4,4.6c0.4,1.5,1,2.9,2,4.1c0.7,0.9,1.6,1.6,2.6,2.1c1.2,0.7,2.5,1.1,3.8,1.4
		c0.7,0.2,1.4,0.3,2.1,0.4c0.1,0,0.2,0,0.3,0.1c0.1,0.1-0.1,0.2-0.1,0.2c-0.7,0.8-1.1,1.7-1.3,2.7c0,0.1,0,0.1,0,0.2
		c0,0.1-0.1,0.2-0.2,0.2c-0.7,0.3-1.4,0.5-2.1,0.6c-0.6,0.1-1.2,0-1.7-0.1c-1.1-0.3-2-0.9-2.7-1.8c-0.2-0.2-0.4-0.5-0.5-0.8
		c-0.5-0.8-1.1-1.5-2-2c-0.8-0.5-1.6-0.6-2.5-0.5c-0.5,0.1-0.6,0.4-0.3,0.8c0.2,0.2,0.4,0.4,0.6,0.5c0.7,0.4,1.2,0.9,1.6,1.6
		c0.5,0.7,1,1.5,1.3,2.3c0.5,1.2,1.4,2.1,2.7,2.5c0.6,0.2,1.2,0.3,1.9,0.4c1.1,0.1,2.2,0,3.3-0.2c0.4-0.1,0.4-0.1,0.4,0.3
		c0,1.4,0,2.8,0,4.2c0,0.3,0,0.5-0.2,0.8c-0.2,0.3-0.4,0.4-0.7,0.5c-0.3,0.1-0.7,0.1-1,0c-1.8-0.6-3.5-1.4-5.2-2.5
		c-1.5-0.9-2.9-2-4.1-3.2c-1.7-1.7-3.2-3.5-4.3-5.6c-1.3-2.4-2.2-4.9-2.7-7.5c-0.2-1-0.3-2-0.4-3c0-0.2,0-0.4-0.1-0.6
		c0-0.6,0-1.2,0-1.8c0-0.1,0-0.1,0-0.2c0-0.4,0.1-0.7,0.1-1.1c0.1-1.1,0.3-2.2,0.5-3.4c0.5-2.3,1.3-4.4,2.4-6.4
		c0.9-1.7,2.1-3.3,3.4-4.7c1.1-1.2,2.4-2.4,3.8-3.4c1.5-1.1,3.2-2,4.9-2.8c1.7-0.7,3.4-1.2,5.2-1.5c1.1-0.2,2.2-0.3,3.3-0.4
		c0.1,0,0.2,0,0.2,0c0.6,0,1.2,0,1.8,0c0.1,0,0.1,0,0.2,0c0.5,0,0.9,0,1.4,0.1c1,0.1,2,0.3,2.9,0.5c2.3,0.5,4.5,1.4,6.6,2.5
		c1.9,1.1,3.7,2.4,5.2,3.9c0.6,0.6,1.2,1.2,1.7,1.8c1.1,1.4,2.1,2.8,3,4.4c1.1,2.2,1.9,4.4,2.4,6.8c0.2,1,0.3,2,0.4,3
		c0,0.1,0,0.1,0,0.2C74.7,35,74.7,36,74.7,36.9z"/>
</g>
</svg>
